<svg xmlns="http://www.w3.org/2000/svg" width="63" height="60" viewBox="0 0 63 60" fill="none">
  <g clip-path="url(#clip0_2_400)">
    <rect width="63" height="60" fill="#F0F0F0"/>
    <path d="M38.8 24.3C40.1791 24.3 41.5018 24.7899 42.477 25.662C43.4521 26.534 44 27.7167 44 28.95V41.35C44 42.5833 43.4521 43.766 42.477 44.638C41.5018 45.5101 40.1791 46 38.8 46H23.2C21.8209 46 20.4982 45.5101 19.523 44.638C18.5479 43.766 18 42.5833 18 41.35V28.95C18 27.7167 18.5479 26.534 19.523 25.662C20.4982 24.7899 21.8209 24.3 23.2 24.3V21.975C23.2 18.1 26.6667 15 31 15C35.3333 15 38.8 18.1 38.8 21.975V24.3ZM23.2 25.85C22.2806 25.85 21.3988 26.1766 20.7487 26.758C20.0986 27.3393 19.7333 28.1278 19.7333 28.95V41.35C19.7333 42.1722 20.0986 42.9607 20.7487 43.542C21.3988 44.1234 22.2806 44.45 23.2 44.45H38.8C39.7194 44.45 40.6012 44.1234 41.2513 43.542C41.9014 42.9607 42.2667 42.1722 42.2667 41.35V28.95C42.2667 28.1278 41.9014 27.3393 41.2513 26.758C40.6012 26.1766 39.7194 25.85 38.8 25.85H23.2ZM37.0667 24.3V21.975C37.0667 20.5362 36.4275 19.1563 35.2898 18.1389C34.1521 17.1216 32.609 16.55 31 16.55C29.391 16.55 27.8479 17.1216 26.7102 18.1389C25.5725 19.1563 24.9333 20.5362 24.9333 21.975V24.3H37.0667ZM31 33.6C30.3104 33.6 29.6491 33.845 29.1615 34.281C28.6739 34.717 28.4 35.3084 28.4 35.925C28.4 36.5416 28.6739 37.133 29.1615 37.569C29.6491 38.005 30.3104 38.25 31 38.25C31.6896 38.25 32.3509 38.005 32.8385 37.569C33.3261 37.133 33.6 36.5416 33.6 35.925C33.6 35.3084 33.3261 34.717 32.8385 34.281C32.3509 33.845 31.6896 33.6 31 33.6ZM31 32.05C32.1493 32.05 33.2515 32.4583 34.0641 33.185C34.8768 33.9117 35.3333 34.8973 35.3333 35.925C35.3333 36.9527 34.8768 37.9383 34.0641 38.665C33.2515 39.3917 32.1493 39.8 31 39.8C29.8507 39.8 28.7485 39.3917 27.9359 38.665C27.1232 37.9383 26.6667 36.9527 26.6667 35.925C26.6667 34.8973 27.1232 33.9117 27.9359 33.185C28.7485 32.4583 29.8507 32.05 31 32.05Z" fill="black"/>
  </g>
  <rect x="0.5" y="0.5" width="61.8571" height="59" />
  <defs>
    <clipPath id="clip0_2_400">
      <rect width="62.8571" height="60" fill="white"/>
    </clipPath>
  </defs>
</svg>