<svg xmlns="http://www.w3.org/2000/svg" width="63" height="60" viewBox="0 0 63 60" fill="none">
  <g clip-path="url(#clip0_2_393)">
    <rect width="63" height="60" fill="#F0F0F0"/>
    <path d="M17 40.5C17 38.6435 17.7638 36.863 19.1235 35.5503C20.4831 34.2375 22.3272 33.5 24.25 33.5H38.75C40.6728 33.5 42.5169 34.2375 43.8765 35.5503C45.2362 36.863 46 38.6435 46 40.5C46 41.4283 45.6181 42.3185 44.9383 42.9749C44.2584 43.6313 43.3364 44 42.375 44H20.625C19.6636 44 18.7416 43.6313 18.0617 42.9749C17.3819 42.3185 17 41.4283 17 40.5Z" stroke="black" stroke-width="1.5" stroke-linejoin="round"/>
    <path d="M31.5 26.5C34.503 26.5 36.9375 24.1495 36.9375 21.25C36.9375 18.3505 34.503 16 31.5 16C28.497 16 26.0625 18.3505 26.0625 21.25C26.0625 24.1495 28.497 26.5 31.5 26.5Z" stroke="black" stroke-width="1.5"/>
  </g>
  <rect x="0.5" y="0.5" width="62" height="59" />
  <defs>
    <clipPath id="clip0_2_393">
      <rect width="63" height="60" fill="white"/>
    </clipPath>
  </defs>
</svg>